<?xml version="1.0" standalone="no"?>
<!DOCTYPE svg PUBLIC "-//W3C//DTD SVG 20010904//EN"
 "http://www.w3.org/TR/2001/REC-SVG-20010904/DTD/svg10.dtd">
<svg version="1.0" xmlns="http://www.w3.org/2000/svg"
 width="300.000000pt" height="298.000000pt" viewBox="0 0 300.000000 298.000000"
 preserveAspectRatio="xMidYMid meet">
<metadata>
Created by potrace 1.10, written by Peter Selinger 2001-2011
</metadata>
<g transform="translate(0.000000,298.000000) scale(0.100000,-0.100000)"
fill="#fcfcfc" stroke="none">
<path d="M994 2890 c-128 -29 -182 -64 -243 -155 -35 -52 -51 -101 -51 -154 0
-56 16 -44 23 18 11 92 79 188 169 239 87 48 108 49 42 0 -100 -74 -159 -185
-174 -328 -5 -41 -5 -102 -1 -135 8 -57 8 -55 9 40 1 96 22 209 43 230 5 5 9
15 9 23 0 8 9 25 20 39 11 14 20 21 20 15 0 -6 -6 -17 -13 -24 -8 -7 -14 -20
-14 -28 -1 -8 -11 -40 -22 -70 -23 -59 -31 -211 -17 -300 4 -25 8 -52 10 -60
1 -8 8 -25 14 -37 7 -13 10 -23 6 -23 -10 0 56 -112 87 -148 16 -18 29 -36 29
-40 0 -4 18 -20 40 -36 36 -27 53 -56 32 -56 -5 0 -9 -6 -10 -12 -14 -108 -13
-128 2 -159 20 -40 20 -45 1 -29 -9 7 -15 8 -15 2 0 -14 67 -71 99 -84 36 -14
101 -19 101 -7 0 5 6 9 13 9 6 0 26 14 44 30 32 30 53 82 53 133 0 15 5 27 12
27 6 0 3 7 -8 16 -18 15 -18 15 11 9 51 -11 158 -66 208 -108 68 -56 100 -115
108 -201 l6 -71 1 65 c3 142 -83 236 -302 330 -36 15 -45 24 -50 53 -9 51 -5
198 5 191 5 -3 9 -2 8 3 -7 31 59 152 75 136 3 -4 2 7 -4 23 -6 17 -20 37 -31
44 -37 26 -56 45 -66 65 -11 19 -8 20 86 22 53 2 122 4 154 6 31 3 57 1 57 -4
0 -5 6 -6 14 -3 14 5 119 -41 149 -66 22 -18 51 -70 43 -77 -2 -3 -31 -6 -63
-7 -54 -2 -63 -6 -101 -40 -51 -48 -64 -87 -48 -149 6 -25 15 -49 19 -53 4 -4
7 -16 7 -26 0 -10 5 -18 10 -18 6 0 10 -7 10 -16 0 -9 9 -28 19 -43 10 -14 34
-58 53 -96 71 -143 97 -190 97 -176 1 11 5 10 17 -5 8 -10 12 -12 8 -4 -6 12
-4 13 7 3 32 -31 112 0 172 66 20 23 37 44 36 49 0 4 -7 -3 -16 -15 -23 -33
-36 -28 -18 7 19 37 19 110 0 157 -18 43 -19 53 -2 53 6 1 26 19 42 40 17 22
36 37 43 35 7 -3 10 0 7 5 -4 6 5 25 19 43 15 17 30 37 35 43 5 6 12 21 16 34
4 13 14 30 21 38 8 7 12 18 8 23 -3 6 -1 15 4 22 15 19 25 95 27 202 2 89 -3
123 -22 175 -6 14 -11 37 -17 68 -1 7 -8 18 -14 24 -15 15 -16 32 -2 23 14 -8
38 -57 44 -86 2 -13 11 -51 20 -84 20 -73 21 -99 4 -89 -9 6 -9 3 0 -9 9 -11
12 -30 8 -59 -4 -30 -3 -37 3 -23 15 32 12 155 -4 219 -32 124 -97 222 -185
279 -29 19 -36 26 -20 22 41 -12 112 -55 154 -94 44 -41 96 -142 96 -186 0
-16 4 -36 9 -43 17 -28 21 35 5 88 -30 100 -93 177 -176 215 -54 25 -215 61
-226 51 -2 -3 4 -8 14 -12 103 -33 169 -94 224 -209 82 -169 80 -379 -3 -548
-34 -69 -101 -150 -160 -195 l-28 -21 22 -30 c34 -46 37 -134 7 -185 -29 -50
-69 -79 -108 -79 -36 0 -80 21 -80 40 0 7 -40 91 -89 187 -50 97 -93 192 -97
212 -9 47 15 97 58 124 37 22 126 27 160 9 29 -15 31 -7 12 42 -22 56 -76 114
-139 147 -49 26 -54 27 -230 27 -155 0 -185 2 -208 18 -14 9 -29 17 -32 17 -3
0 8 -26 24 -59 27 -53 66 -96 108 -120 14 -7 13 -13 -10 -43 -68 -89 -90 -201
-63 -328 27 -126 19 -179 -32 -233 -73 -77 -173 -43 -209 70 -14 46 -15 61 -4
101 7 26 19 54 26 62 13 14 5 25 -63 96 -90 91 -134 170 -158 284 -29 136 -6
308 56 430 41 80 154 180 204 180 8 0 18 5 21 10 8 14 -16 11 -111 -10z"/>
<path d="M635 2613 c-56 -105 -79 -201 -71 -298 10 -132 63 -274 147 -395 44
-63 99 -128 99 -117 0 7 -70 118 -81 127 -11 10 -79 145 -79 157 0 7 -4 13 -9
13 -5 0 -14 26 -20 58 -6 31 -15 71 -18 87 -11 48 -9 221 4 247 6 12 16 36 22
52 11 28 12 28 29 9 16 -19 17 -17 17 53 1 41 0 74 -1 74 -2 0 -19 -30 -39
-67z"/>
<path d="M2314 2658 c3 -13 6 -48 6 -78 1 -55 1 -55 15 -25 8 17 14 23 14 14
1 -9 8 -22 16 -29 10 -8 13 -21 9 -33 -4 -13 -2 -17 5 -13 6 4 11 0 12 -11 0
-10 4 -42 8 -71 9 -60 -11 -228 -28 -245 -6 -6 -11 -21 -11 -33 0 -28 -35
-106 -43 -97 -4 3 -7 -3 -7 -13 0 -11 -11 -35 -25 -54 -14 -19 -25 -38 -25
-42 0 -5 -18 -32 -40 -60 -46 -58 -45 -81 2 -28 118 135 208 354 208 508 0 80
-30 187 -74 266 -38 68 -53 83 -42 44z"/>
<path d="M500 2618 c-79 -59 -156 -151 -182 -216 -16 -43 -22 -78 -23 -142 0
-77 3 -91 34 -153 20 -39 49 -80 68 -94 43 -33 51 -25 15 14 -31 35 -86 133
-75 133 5 0 2 4 -5 9 -16 10 -18 136 -3 188 7 24 64 138 75 150 0 1 2 -47 2
-105 1 -129 3 -142 22 -142 9 0 13 -7 9 -19 -3 -12 1 -22 10 -25 9 -4 13 -14
10 -26 -3 -11 -2 -20 3 -20 4 0 20 -24 35 -52 27 -51 65 -107 93 -137 7 -7 11
-20 8 -27 -3 -8 0 -11 8 -8 8 3 17 1 21 -5 3 -6 1 -11 -5 -11 -7 0 5 -15 25
-32 21 -18 52 -48 70 -65 18 -18 41 -33 50 -33 11 0 -6 24 -51 70 -197 204
-292 406 -264 563 13 70 47 141 91 192 41 46 27 44 -41 -7z m-83 -200 c-3 -8
-6 -5 -6 6 -1 11 2 17 5 13 3 -3 4 -12 1 -19z m5 -75 c3 -29 1 -50 -4 -47 -4
3 -8 28 -8 56 0 64 6 59 12 -9z"/>
<path d="M2447 2628 c45 -47 79 -116 93 -192 10 -56 10 -76 -5 -143 -30 -139
-97 -246 -275 -445 l-65 -72 48 34 c27 19 68 55 91 80 24 25 49 44 57 42 12
-3 12 -2 0 6 -12 8 -4 23 37 75 62 79 118 184 127 238 5 26 11 37 18 32 9 -5
9 -3 2 8 -6 8 -8 42 -4 79 l6 65 1 -53 c1 -33 6 -51 12 -47 10 6 7 71 -6 155
-5 31 -1 28 32 -30 20 -36 41 -85 46 -110 5 -25 11 -58 15 -73 11 -57 -30
-168 -89 -239 -22 -27 -35 -48 -29 -48 24 0 80 64 107 122 25 55 29 75 29 153
0 80 -3 97 -31 155 -34 70 -89 133 -172 198 -64 50 -88 55 -45 10z m111 -134
c-3 -14 -5 -12 -10 9 -3 19 -2 25 4 19 6 -6 8 -18 6 -28z"/>
<path d="M280 2073 c0 -39 35 -116 89 -197 29 -43 67 -107 83 -143 26 -54 29
-68 19 -89 -7 -15 -19 -24 -33 -24 -95 1 -287 180 -320 298 -14 49 -23 30 -20
-41 9 -235 124 -386 341 -451 64 -19 74 -20 66 -5 -7 10 -45 28 -75 34 -28 6
-104 39 -119 52 -81 67 -113 101 -129 136 -29 62 -35 79 -39 112 l-4 30 37
-35 c21 -19 44 -41 52 -48 21 -19 121 -82 135 -85 7 -1 15 -6 19 -11 3 -5 23
-9 44 -9 51 0 77 31 68 82 -4 20 -7 42 -7 49 0 6 -4 12 -9 12 -4 0 -8 7 -8 15
0 16 -68 128 -82 133 -4 2 -8 8 -8 13 0 5 -12 27 -26 49 -31 46 -26 62 7 31
23 -21 49 -28 49 -12 0 4 -18 21 -41 37 -22 15 -51 42 -65 58 -22 29 -24 30
-24 9z m-70 -327 c0 -5 -20 11 -45 36 -25 25 -45 52 -45 59 0 15 89 -80 90
-95z"/>
<path d="M2682 2061 c-12 -16 -39 -42 -61 -58 -22 -15 -41 -31 -41 -35 0 -15
27 -8 49 13 12 12 25 19 28 16 7 -8 -7 -47 -18 -47 -5 0 -9 -7 -9 -15 0 -8 -4
-15 -10 -15 -5 0 -10 -5 -10 -10 0 -6 -5 -16 -10 -23 -28 -33 -80 -118 -80
-130 0 -7 -4 -17 -9 -22 -17 -20 -22 -92 -6 -105 8 -7 13 -16 10 -20 -9 -15
60 -18 89 -4 16 7 34 11 40 7 6 -3 8 -3 4 2 -4 4 19 24 50 45 31 20 79 56 106
79 26 23 50 40 52 39 8 -8 -40 -126 -49 -121 -6 3 -7 1 -4 -5 9 -13 -24 -72
-40 -72 -7 0 -13 -6 -13 -12 -1 -27 -149 -114 -176 -104 -7 3 -15 -1 -17 -8
-3 -8 -22 -17 -43 -20 -23 -5 -33 -11 -27 -17 6 -6 28 -3 60 6 180 53 274 142
323 305 22 74 34 206 20 215 -6 4 -10 -1 -10 -11 0 -61 -154 -240 -248 -288
-143 -73 -149 27 -13 226 51 76 83 139 95 191 8 35 -5 35 -32 -2z m198 -211
c0 -13 -61 -82 -68 -76 -4 5 56 86 64 86 2 0 4 -4 4 -10z"/>
<path d="M948 1833 c-2 -10 -1 -31 3 -48 5 -25 6 -22 6 18 0 50 -2 58 -9 30z"/>
<path d="M1376 1776 c6 -15 34 -30 34 -18 0 4 -9 13 -20 19 -16 11 -18 10 -14
-1z"/>
<path d="M1420 1748 c0 -8 10 -20 23 -27 22 -12 62 -64 84 -111 15 -32 16 -22
2 19 -6 17 -15 31 -20 31 -5 0 -9 5 -9 11 0 6 -18 29 -40 51 -23 24 -40 34
-40 26z"/>
<path d="M1542 1555 c0 -11 4 -31 8 -45 6 -20 8 -21 8 -5 0 11 -4 31 -8 45 -6
20 -8 21 -8 5z"/>
<path d="M1788 1553 c-2 -10 -1 -36 3 -58 6 -36 6 -34 6 18 0 59 -2 69 -9 40z"/>
<path d="M110 1463 c0 -40 83 -219 141 -305 108 -159 214 -240 372 -285 57
-16 247 -32 247 -21 0 4 -15 9 -32 12 -31 5 -130 16 -153 17 -5 1 -18 6 -29
11 -10 6 -33 12 -50 15 -17 3 -40 10 -51 16 -11 6 -25 12 -31 13 -27 5 -105
63 -161 122 -35 36 -63 68 -63 72 0 4 -9 17 -20 30 -12 13 -18 30 -15 37 2 8
1 12 -3 9 -4 -2 -20 15 -35 40 l-27 45 47 -27 c27 -15 53 -31 58 -34 6 -4 27
-13 48 -19 20 -7 37 -16 37 -20 0 -4 19 -14 43 -21 23 -8 58 -21 77 -29 19 -8
38 -16 43 -17 4 -1 9 -3 12 -4 3 -1 8 -3 13 -5 4 -1 14 -4 22 -8 8 -3 38 -13
67 -21 48 -13 53 -13 73 4 20 17 20 19 3 49 -10 17 -24 31 -30 31 -7 0 -13 4
-13 9 0 5 -17 17 -37 27 -38 18 -44 20 -64 23 -5 0 -7 6 -4 11 3 6 -3 10 -14
10 -12 0 -21 4 -21 8 0 4 -15 13 -34 20 -18 7 -41 21 -51 32 -10 11 -22 20
-28 20 -5 0 -18 10 -29 23 l-20 22 49 3 c77 5 71 19 -11 24 -41 3 -82 11 -91
18 -26 21 -28 4 -4 -29 28 -38 151 -126 254 -181 142 -75 184 -118 103 -105
-166 27 -470 206 -559 327 -16 23 -29 36 -29 31z m176 -184 c63 -36 81 -57 32
-36 -44 18 -113 62 -138 87 -35 35 -21 43 16 11 19 -18 60 -45 90 -62z"/>
<path d="M2862 1450 c-16 -40 -121 -132 -229 -199 -138 -86 -383 -178 -383
-144 0 14 71 62 165 113 44 23 107 62 140 85 63 45 132 111 124 119 -3 3 -23
-1 -44 -9 -22 -8 -61 -14 -87 -15 -54 0 -77 -19 -26 -22 18 0 46 0 62 1 l29 3
-36 -31 c-19 -17 -42 -31 -50 -31 -9 0 -20 -6 -24 -13 -11 -18 -78 -58 -86
-52 -4 3 -5 2 -2 -2 5 -7 -72 -45 -92 -46 -7 0 -11 -3 -8 -5 7 -8 -16 -32 -25
-27 -13 8 -51 -47 -48 -69 2 -15 12 -21 41 -24 21 -2 45 2 52 8 8 7 22 10 30
6 8 -3 15 -1 15 4 0 6 5 10 11 10 10 0 111 39 199 76 67 29 125 58 153 77 33
22 48 15 24 -11 -10 -10 -17 -23 -17 -28 0 -17 -67 -104 -75 -96 -5 4 -5 1 -1
-6 11 -18 -107 -133 -169 -165 -53 -28 -163 -67 -205 -73 -14 -2 -45 -6 -70
-9 -141 -15 -150 -33 -12 -23 264 17 432 133 581 401 31 56 83 196 78 210 -3
7 -9 1 -15 -13z m-32 -99 c0 -6 -15 -21 -32 -35 -38 -28 -168 -100 -168 -93 0
3 38 30 84 61 46 30 87 60 91 65 8 14 25 14 25 2z"/>
<path d="M1526 1411 c-3 -21 -19 -69 -36 -105 -16 -36 -25 -66 -20 -66 6 0 10
4 10 10 0 5 11 34 25 63 23 51 44 137 33 137 -3 0 -8 -18 -12 -39z"/>
<path d="M1621 1414 c0 -11 3 -14 6 -6 3 7 2 16 -1 19 -3 4 -6 -2 -5 -13z"/>
<path d="M1713 1187 c-51 -76 -191 -232 -208 -232 -14 0 -45 -30 -45 -43 0 -6
-3 -12 -7 -14 -10 -4 -47 -79 -48 -94 0 -6 -5 -18 -11 -25 -18 -22 -29 -123
-28 -259 0 -132 6 -190 28 -264 17 -55 1 -64 -27 -16 -10 16 -24 35 -31 42
-29 29 -114 225 -121 278 -8 63 -19 88 -29 71 -11 -16 11 -121 40 -192 14 -35
46 -95 71 -134 49 -76 164 -217 171 -210 3 2 -3 22 -11 44 -28 68 -55 192 -66
296 -11 103 -4 220 20 307 14 54 79 198 89 198 13 0 78 -142 94 -206 24 -93
30 -218 16 -319 -14 -108 -45 -234 -71 -295 l-19 -45 55 60 c124 136 222 311
232 415 5 51 -1 69 -9 25 -1 -11 -6 -22 -10 -25 -4 -3 -8 -20 -10 -38 -1 -18
-5 -32 -9 -32 -4 0 -10 -12 -14 -27 -7 -30 -102 -192 -136 -233 l-21 -25 6 30
c14 69 19 101 20 122 1 11 4 19 9 16 11 -7 9 302 -3 332 -5 14 -12 40 -15 58
-4 17 -11 38 -18 46 -7 8 -11 15 -9 15 5 2 -16 57 -37 98 l-19 37 26 35 c18
23 33 33 44 30 20 -6 109 101 105 126 -1 8 4 14 11 12 8 -1 11 2 7 8 -4 6 3
27 15 47 35 59 17 46 -27 -20z m-42 -99 c-17 -23 -31 -35 -31 -27 0 7 12 25
25 38 14 13 25 28 25 34 0 6 3 8 6 4 4 -3 -8 -25 -25 -49z m-41 -48 c0 -5 -5
-10 -11 -10 -5 0 -7 5 -4 10 3 6 8 10 11 10 2 0 4 -4 4 -10z"/>
<path d="M1425 1175 c-11 -19 -16 -37 -12 -41 4 -4 7 -2 7 5 0 7 9 26 21 42
11 16 16 29 11 29 -5 0 -17 -16 -27 -35z"/>
<path d="M1357 1063 c-4 -3 -7 -11 -7 -17 0 -6 5 -5 12 2 6 6 9 14 7 17 -3 3
-9 2 -12 -2z"/>
<path d="M1306 978 l-17 -33 20 24 c18 20 27 41 18 41 -1 0 -11 -15 -21 -32z"/>
<path d="M1239 812 c-62 -97 -99 -180 -99 -224 0 -16 -3 -27 -7 -25 -5 3 -7
-23 -6 -56 1 -34 -1 -53 -4 -42 -3 11 -10 23 -15 26 -5 3 -10 17 -12 30 -1 13
-8 34 -14 46 -16 28 -42 144 -36 155 3 4 -2 8 -11 8 -9 0 -14 3 -12 8 3 4 -5
7 -16 8 -37 1 -120 14 -162 26 -44 12 -68 28 -44 28 7 1 27 6 42 13 24 10 11
12 -92 12 -66 0 -117 -3 -112 -8 24 -24 290 -97 355 -97 21 0 26 -6 31 -37 11
-70 54 -192 102 -288 26 -52 48 -93 50 -91 2 2 -1 23 -6 47 -6 24 -11 95 -11
158 0 92 4 127 21 175 18 51 67 137 88 156 10 9 33 52 29 55 -2 2 -28 -36 -59
-83z"/>
<path d="M1690 886 c0 -2 7 -7 16 -10 8 -3 12 -2 9 4 -6 10 -25 14 -25 6z"/>
<path d="M1467 801 c-51 -138 -55 -250 -12 -406 8 -27 19 -69 25 -92 6 -24 15
-43 20 -43 6 0 9 3 8 7 -1 5 11 60 27 123 46 182 36 333 -28 456 -14 26 -14
26 -40 -45z m60 -100 c27 -82 26 -121 -8 -265 -21 -91 -26 -99 -34 -60 -3 16
-10 43 -15 59 -5 17 -15 64 -21 106 -11 69 -10 80 10 140 13 35 24 75 25 89 5
41 8 46 13 25 3 -11 16 -53 30 -94z"/>
<path d="M2153 813 c12 -7 33 -13 47 -13 19 0 21 -3 10 -9 -16 -9 -156 -42
-168 -39 -4 1 -23 -2 -43 -6 -41 -9 -57 -30 -64 -87 -3 -23 -9 -47 -12 -53 -4
-6 -8 -17 -8 -26 -3 -27 -29 -90 -38 -90 -4 0 -5 -4 -2 -10 3 -5 1 -10 -4 -10
-6 0 -11 19 -11 43 0 55 -42 213 -63 237 -8 10 -23 31 -31 47 -8 15 -15 23
-16 17 0 -6 10 -26 23 -45 30 -45 36 -60 53 -154 16 -80 13 -169 -7 -264 -5
-24 -8 -46 -5 -48 16 -17 138 282 151 370 7 42 10 47 34 47 63 1 361 83 361
100 0 3 -52 5 -115 5 -95 0 -110 -2 -92 -12z"/>
</g>
</svg>
