<?xml version="1.0" standalone="no"?>
<!DOCTYPE svg PUBLIC "-//W3C//DTD SVG 20010904//EN"
 "http://www.w3.org/TR/2001/REC-SVG-20010904/DTD/svg10.dtd">
<svg version="1.0" xmlns="http://www.w3.org/2000/svg"
 width="300.000000pt" height="95.000000pt" viewBox="0 0 300.000000 95.000000"
 preserveAspectRatio="xMidYMid meet">
<metadata>
Created by potrace 1.10, written by Peter Selinger 2001-2011
</metadata>
<g transform="translate(0.000000,95.000000) scale(0.100000,-0.100000)"
fill="#000000" stroke="none">
<path d="M475 885 c-46 -24 -55 -43 -55 -116 0 -55 5 -77 30 -125 17 -31 30
-64 29 -73 -4 -28 18 -66 45 -81 24 -12 29 -12 54 7 18 13 27 30 27 47 -1 35
20 33 60 -7 18 -18 38 -31 44 -29 6 2 13 -3 17 -11 15 -41 104 16 107 69 1 16
13 49 26 74 34 64 39 187 9 219 -21 24 -58 41 -86 41 -11 0 -5 -7 15 -20 43
-26 63 -68 63 -130 0 -54 -28 -123 -54 -133 -11 -4 -13 -15 -9 -41 3 -22 1
-42 -7 -51 -25 -30 -44 -16 -80 55 -40 81 -35 106 19 104 38 -2 39 5 5 37 -20
19 -40 25 -97 30 -40 3 -74 4 -76 3 -2 -2 9 -14 23 -29 24 -24 25 -27 10 -49
-10 -17 -14 -43 -12 -86 2 -50 0 -64 -14 -74 -29 -18 -53 4 -53 50 0 25 -5 43
-16 51 -46 34 -65 154 -34 214 9 16 30 39 48 49 25 16 28 20 12 20 -11 0 -33
-7 -50 -15z m190 -192 c-16 -38 -16 -50 -2 -91 15 -43 10 -50 -24 -32 -22 12
-24 45 -8 103 6 22 16 37 26 37 10 0 13 -5 8 -17z"/>
<path d="M320 778 c-36 -49 -39 -94 -9 -132 20 -26 14 -37 -9 -14 -9 9 -12 8
-12 -4 0 -9 5 -20 10 -23 10 -6 50 -78 50 -90 0 -3 -8 -5 -18 -5 -27 0 -60 27
-82 68 -19 37 -19 37 -20 9 -1 -66 40 -118 105 -133 24 -5 28 -4 18 6 -10 10
-9 19 4 41 15 25 15 31 0 71 -23 60 -21 65 9 29 14 -17 33 -31 41 -31 11 0 7
9 -13 33 -53 63 -70 149 -38 195 8 12 10 22 5 22 -6 0 -24 -19 -41 -42z"/>
<path d="M954 798 c33 -47 11 -143 -47 -205 -17 -19 -18 -23 -4 -23 8 0 25 11
35 25 25 32 37 17 17 -21 -18 -36 -18 -54 0 -78 12 -16 12 -22 2 -34 -10 -13
-8 -14 18 -8 65 16 106 67 105 133 -1 28 -1 28 -20 -9 -22 -41 -55 -68 -82
-68 -26 0 -22 18 12 70 30 45 40 74 18 52 -23 -23 -28 -12 -7 17 27 37 21 88
-16 137 -28 37 -56 48 -31 12z"/>
<path d="M380 773 c-10 -33 -10 -50 4 -95 8 -30 25 -63 37 -74 22 -19 22 -19
16 1 -3 11 -13 40 -22 65 -10 27 -14 59 -11 80 8 55 -10 72 -24 23z"/>
<path d="M904 797 c-7 -8 -8 -21 -2 -36 11 -30 1 -85 -24 -133 -21 -44 -8 -51
20 -10 32 44 45 105 32 152 -12 45 -11 44 -26 27z"/>
<path d="M1375 455 c0 -113 0 -115 23 -115 24 0 26 13 22 151 -1 62 9 78 34
53 19 -18 20 -28 5 -56 -15 -28 -4 -34 26 -14 15 10 25 26 25 41 0 38 -25 55
-83 55 l-52 0 0 -115z"/>
<path d="M1528 449 c2 -51 -2 -86 -9 -95 -9 -12 -4 -14 35 -14 44 0 45 1 34
20 -11 17 -9 24 20 52 l32 33 0 -41 c0 -22 -5 -45 -12 -52 -9 -9 -1 -12 36
-12 38 0 46 3 38 13 -6 7 -11 44 -11 82 0 38 5 75 11 82 8 10 0 13 -38 13 -37
0 -45 -3 -36 -12 20 -20 13 -58 -15 -83 -16 -13 -30 -25 -33 -25 -9 0 2 95 12
108 8 9 1 12 -29 12 l-39 0 4 -81z"/>
<path d="M1768 513 c-25 -29 -47 -82 -37 -89 5 -3 9 -13 9 -23 0 -24 35 -59
66 -67 34 -9 74 21 90 67 13 38 -2 93 -33 117 -24 18 -77 15 -95 -5z m70 -6
c6 -6 10 -40 11 -74 0 -64 -14 -91 -43 -80 -18 7 -33 70 -18 75 8 2 8 8 1 20
-7 12 -7 25 0 45 11 29 32 35 49 14z"/>
<path d="M1928 517 c6 -7 11 -44 11 -82 0 -38 -5 -75 -11 -82 -8 -10 -3 -13
25 -13 31 0 36 3 39 27 2 18 14 35 35 48 45 28 41 42 -3 16 -20 -12 -38 -21
-39 -19 -2 2 -1 25 2 51 6 47 7 48 37 45 21 -2 34 -10 41 -25 10 -23 25 -31
25 -13 0 5 -5 21 -12 35 -11 24 -16 25 -86 25 -59 0 -72 -3 -64 -13z"/>
<path d="M2108 518 c14 -17 14 -148 0 -165 -8 -10 -3 -13 21 -13 28 0 31 2 22
19 -11 20 -11 116 0 103 4 -4 16 -32 27 -62 18 -52 22 -55 57 -58 33 -3 35 -1
26 15 -12 23 -12 132 1 156 7 14 4 17 -24 17 -25 0 -29 -3 -20 -12 13 -13 17
-78 5 -78 -5 1 -17 20 -28 43 -18 38 -24 42 -59 45 -32 3 -38 1 -28 -10z"/>
<path d="M2308 513 c13 -24 13 -133 1 -155 -9 -16 -5 -18 32 -18 32 0 39 3 31
13 -13 16 -13 148 0 165 8 9 1 12 -31 12 -37 0 -41 -2 -33 -17z"/>
<path d="M2420 508 c17 -13 39 -35 48 -50 15 -25 14 -28 -12 -62 -15 -20 -24
-41 -21 -46 10 -15 55 -13 49 3 -2 7 4 21 15 31 18 17 20 16 35 -5 8 -12 13
-26 10 -31 -3 -4 19 -8 48 -8 44 1 50 2 33 12 -38 21 -75 62 -75 83 0 21 37
62 75 83 17 10 11 11 -33 12 -29 0 -51 -4 -48 -9 3 -5 -3 -20 -13 -32 -20 -24
-20 -24 -35 -4 -9 11 -13 26 -11 33 3 8 -10 12 -47 12 l-51 0 33 -22z"/>
<path d="M230 452 c0 -5 18 -36 39 -70 45 -68 96 -102 158 -103 29 0 33 -2 18
-8 -11 -5 -26 -6 -34 -3 -9 3 -12 1 -7 -6 4 -6 29 -14 56 -18 45 -6 50 -9 56
-38 3 -17 14 -45 23 -63 l16 -32 0 62 c1 39 7 75 19 97 l18 35 -25 -30 -24
-29 -71 34 c-71 35 -71 35 -51 56 10 11 19 25 19 32 0 16 -79 68 -113 74 -39
7 -19 -14 52 -54 36 -21 50 -34 39 -36 -28 -6 -117 39 -148 74 -30 34 -40 41
-40 26z"/>
<path d="M1041 426 c-35 -36 -130 -81 -153 -74 -7 3 13 19 44 37 71 40 90 60
51 53 -43 -8 -113 -60 -113 -84 0 -4 9 -16 20 -26 20 -18 19 -19 -33 -42 -28
-12 -60 -30 -69 -38 -16 -14 -20 -13 -37 2 -19 17 -19 17 -4 -26 9 -26 12 -59
9 -83 -6 -38 -5 -39 8 -15 8 14 19 44 26 66 12 40 15 42 61 48 26 4 51 12 55
18 5 7 2 9 -7 6 -8 -3 -23 -2 -34 3 -15 6 -11 8 18 8 62 1 113 35 158 103 54
85 54 100 0 44z"/>
<path d="M2066 385 c-9 -14 -25 -25 -36 -25 -11 0 -20 -4 -20 -10 0 -5 15 -10
34 -10 30 0 34 4 40 32 8 41 3 45 -18 13z"/>
<path d="M718 372 c-9 -15 -25 -36 -36 -46 -19 -17 -19 -20 -5 -54 21 -48 19
-150 -2 -192 -23 -44 -12 -48 18 -8 46 60 48 78 21 162 l-24 77 26 39 c15 22
25 42 22 45 -2 2 -11 -8 -20 -23z"/>
<path d="M622 276 c-7 -15 -12 -40 -12 -55 0 -21 -6 -30 -21 -34 -18 -5 -20
-11 -15 -32 8 -31 55 -105 67 -105 4 0 2 19 -6 41 -17 49 -20 142 -4 170 6 11
9 25 7 31 -2 6 -9 -2 -16 -16z"/>
<path d="M646 255 c-9 -24 -7 -128 3 -144 7 -11 10 -9 15 7 18 57 1 186 -18
137z"/>
</g>
</svg>
