<?xml version="1.0" encoding="UTF-8"?>
<svg xmlns="http://www.w3.org/2000/svg" xmlns:xlink="http://www.w3.org/1999/xlink" width="110px" height="35px" viewBox="0 0 110 35" version="1.1">
<g id="surface1">
<path style=" stroke:none;fill-rule:nonzero;fill:rgb(100%,100%,100%);fill-opacity:1;" d="M 17.195312 2.574219 C 16.464844 2.976562 15.765625 3.492188 15.691406 3.75 C 15.582031 4.007812 15.621094 5.625 15.765625 7.351562 C 15.988281 10.441406 16.976562 13.089844 17.671875 12.609375 C 17.855469 12.5 17.894531 13.015625 17.785156 13.75 C 17.5625 14.890625 17.671875 15.183594 18.625 16.175781 C 19.25 16.765625 19.945312 17.28125 20.167969 17.28125 C 20.9375 17.28125 22.441406 15.441406 22.257812 14.667969 C 21.964844 13.640625 22.878906 13.785156 24.273438 15.035156 C 25.300781 15.957031 25.484375 16.359375 25.445312 17.71875 C 25.410156 19.191406 25.410156 19.226562 25.777344 18.234375 C 26.253906 16.765625 25.335938 14.890625 23.6875 14.082031 C 22.21875 13.382812 21.925781 12.390625 22.585938 10.441406 C 22.84375 9.667969 22.988281 8.933594 22.917969 8.785156 C 22.625 8.34375 24.640625 8.015625 25.042969 8.417969 C 25.300781 8.675781 25.226562 9.007812 24.824219 9.484375 C 24.492188 9.851562 24.199219 10.589844 24.199219 11.101562 C 24.199219 12.464844 26.472656 16.582031 27.425781 16.949219 C 28.601562 17.390625 30.03125 16.03125 30.324219 14.15625 C 30.433594 13.34375 30.875 12.242188 31.238281 11.726562 C 31.9375 10.773438 32.78125 4.851562 32.375 3.75 C 32.121094 3.160156 29.589844 1.839844 28.710938 1.839844 C 28.234375 1.839844 28.417969 2.058594 29.222656 2.574219 C 30.800781 3.53125 31.535156 5.074219 31.535156 7.425781 C 31.535156 9.375 30.578125 11.582031 29.480469 12.242188 C 29.1875 12.425781 29.078125 12.941406 29.222656 13.785156 C 29.332031 14.558594 29.261719 15.292969 28.964844 15.625 C 28.050781 16.726562 27.351562 16.214844 26.035156 13.601562 C 24.566406 10.625 24.75 9.707031 26.730469 9.78125 C 28.125 9.851562 28.160156 9.59375 26.914062 8.417969 C 26.179688 7.71875 25.445312 7.5 23.355469 7.316406 C 21.890625 7.207031 20.679688 7.132812 20.605469 7.167969 C 20.570312 7.207031 20.9375 7.683594 21.449219 8.234375 C 22.328125 9.191406 22.328125 9.265625 21.78125 10.148438 C 21.304688 10.808594 21.230469 11.507812 21.375 12.941406 C 21.632812 15 21.191406 16.175781 20.203125 16.175781 C 19.140625 16.175781 18.589844 15.21875 18.808594 13.785156 C 18.957031 12.792969 18.882812 12.425781 18.371094 12.132812 C 16.464844 11.140625 15.839844 6.214844 17.34375 4.007812 C 17.785156 3.34375 18.589844 2.574219 19.066406 2.316406 C 19.875 1.910156 19.875 1.839844 19.25 1.875 C 18.847656 1.875 17.929688 2.207031 17.195312 2.574219 Z M 17.195312 2.574219 "/>
<path style=" stroke:none;fill-rule:nonzero;fill:rgb(100%,100%,100%);fill-opacity:1;" d="M 34.761719 5.332031 C 36.226562 7.207031 35.601562 10.292969 33.148438 13.199219 C 31.789062 14.851562 32.265625 15 33.84375 13.417969 C 34.539062 12.71875 35.308594 12.132812 35.492188 12.132812 C 36.191406 12.132812 37.398438 10.183594 37.398438 9.082031 C 37.398438 7.832031 35.859375 5.332031 34.6875 4.707031 C 34.027344 4.339844 34.027344 4.375 34.761719 5.332031 Z M 36.117188 10.183594 C 36.007812 10.773438 35.75 11.359375 35.566406 11.542969 C 35.382812 11.726562 35.421875 11.285156 35.640625 10.550781 C 36.117188 8.96875 36.484375 8.714844 36.117188 10.183594 Z M 36.117188 10.183594 "/>
<path style=" stroke:none;fill-rule:nonzero;fill:rgb(100%,100%,100%);fill-opacity:1;" d="M 11.734375 6.324219 C 10.414062 8.125 10.304688 9.78125 11.402344 11.175781 C 11.84375 11.726562 12.285156 12.09375 12.394531 11.984375 C 12.464844 11.875 12.394531 11.582031 12.210938 11.324219 C 11.695312 10.660156 11.367188 9.15625 11.769531 9.410156 C 11.953125 9.523438 12.101562 9.851562 12.101562 10.148438 C 12.101562 11.066406 14.007812 13.640625 15.179688 14.226562 L 16.316406 14.816406 L 15.105469 13.457031 C 12.613281 10.625 11.769531 7.390625 13.054688 5.589844 C 13.347656 5.148438 13.421875 4.78125 13.238281 4.78125 C 13.015625 4.78125 12.355469 5.476562 11.734375 6.324219 Z M 11.734375 6.324219 "/>
<path style=" stroke:none;fill-rule:nonzero;fill:rgb(100%,100%,100%);fill-opacity:1;" d="M 14.007812 6.066406 C 13.125 7.941406 13.675781 10.40625 15.4375 12.90625 C 16.609375 14.59375 16.683594 13.898438 15.582031 11.542969 C 14.8125 9.890625 14.628906 9.042969 14.738281 7.683594 C 14.960938 5.550781 14.59375 4.78125 14.007812 6.066406 Z M 14.007812 6.066406 "/>
<path style=" stroke:none;fill-rule:nonzero;fill:rgb(100%,100%,100%);fill-opacity:1;" d="M 33.328125 5.515625 C 33.292969 5.808594 33.292969 6.839844 33.367188 7.792969 C 33.402344 9.007812 33.148438 10.035156 32.488281 11.398438 C 31.421875 13.566406 31.277344 14.265625 32.082031 13.601562 C 33 12.832031 34.464844 9.449219 34.464844 8.125 C 34.429688 6.765625 33.441406 4.484375 33.328125 5.515625 Z M 33.328125 5.515625 "/>
<path style=" stroke:none;fill-rule:nonzero;fill:rgb(100%,100%,100%);fill-opacity:1;" d="M 10.265625 11.25 C 10.265625 11.46875 10.558594 12.058594 10.964844 12.535156 C 11.625 13.417969 12.832031 15.589844 12.832031 15.992188 C 12.832031 16.398438 11.511719 16.140625 10.707031 15.589844 C 10.265625 15.292969 9.570312 14.410156 9.128906 13.675781 L 8.398438 12.316406 L 8.578125 13.933594 C 8.800781 16.101562 9.789062 17.316406 11.953125 18.125 C 13.714844 18.75 13.75 18.75 12.941406 18.050781 C 12.136719 17.390625 12.136719 17.390625 12.871094 16.582031 C 13.382812 16.066406 13.53125 15.550781 13.347656 14.890625 C 13.089844 13.898438 10.304688 10.589844 10.265625 11.25 Z M 10.265625 11.25 "/>
<path style=" stroke:none;fill-rule:nonzero;fill:rgb(100%,100%,100%);fill-opacity:1;" d="M 36.558594 12.023438 C 36.042969 12.609375 35.347656 13.714844 35.015625 14.523438 C 34.394531 15.957031 34.394531 15.957031 35.308594 16.765625 L 36.261719 17.574219 L 35.457031 17.832031 C 35.015625 17.941406 34.832031 18.160156 35.089844 18.234375 C 35.785156 18.53125 38.023438 17.390625 38.683594 16.398438 C 39.011719 15.882812 39.378906 14.742188 39.453125 13.898438 L 39.601562 12.316406 L 39.050781 13.492188 C 38.464844 14.742188 36.738281 16.175781 35.785156 16.175781 C 34.980469 16.175781 35.015625 16.03125 36.484375 13.34375 C 37.214844 12.09375 37.730469 11.03125 37.65625 11.03125 C 37.582031 11.03125 37.105469 11.46875 36.558594 12.023438 Z M 36.558594 12.023438 "/>
<path style=" stroke:none;fill-rule:nonzero;fill:rgb(100%,100%,100%);fill-opacity:1;" d="M 50.417969 18.199219 C 50.417969 22.351562 50.417969 22.425781 51.261719 22.425781 C 52.140625 22.425781 52.214844 21.949219 52.066406 16.875 C 52.03125 14.59375 52.398438 14.007812 53.3125 14.925781 C 54.011719 15.589844 54.046875 15.957031 53.496094 16.984375 C 52.945312 18.015625 53.351562 18.234375 54.449219 17.5 C 55 17.132812 55.367188 16.542969 55.367188 15.992188 C 55.367188 14.59375 54.449219 13.96875 52.324219 13.96875 L 50.417969 13.96875 Z M 50.417969 18.199219 "/>
<path style=" stroke:none;fill-rule:nonzero;fill:rgb(100%,100%,100%);fill-opacity:1;" d="M 56.027344 18.417969 C 56.101562 20.292969 55.953125 21.582031 55.695312 21.910156 C 55.367188 22.351562 55.550781 22.425781 56.980469 22.425781 C 58.59375 22.425781 58.628906 22.390625 58.226562 21.691406 C 57.824219 21.066406 57.898438 20.808594 58.960938 19.78125 L 60.132812 18.566406 L 60.132812 20.074219 C 60.132812 20.882812 59.949219 21.726562 59.691406 21.984375 C 59.363281 22.316406 59.65625 22.425781 61.011719 22.425781 C 62.40625 22.425781 62.699219 22.316406 62.40625 21.949219 C 62.1875 21.691406 62.003906 20.332031 62.003906 18.933594 C 62.003906 17.535156 62.1875 16.175781 62.40625 15.917969 C 62.699219 15.550781 62.40625 15.441406 61.011719 15.441406 C 59.65625 15.441406 59.363281 15.550781 59.691406 15.882812 C 60.425781 16.617188 60.171875 18.015625 59.144531 18.933594 C 58.558594 19.410156 58.042969 19.851562 57.933594 19.851562 C 57.601562 19.851562 58.007812 16.359375 58.375 15.882812 C 58.667969 15.550781 58.410156 15.441406 57.308594 15.441406 L 55.878906 15.441406 Z M 56.027344 18.417969 "/>
<path style=" stroke:none;fill-rule:nonzero;fill:rgb(100%,100%,100%);fill-opacity:1;" d="M 64.828125 16.066406 C 63.910156 17.132812 63.101562 19.082031 63.46875 19.339844 C 63.652344 19.449219 63.800781 19.851562 63.800781 20.21875 C 63.800781 21.324219 65.925781 22.90625 67.0625 22.609375 C 69.335938 22.058594 70.328125 19.667969 69.300781 17.351562 C 68.933594 16.582031 68.382812 15.808594 68.015625 15.699219 C 66.878906 15.257812 65.375 15.441406 64.828125 16.066406 Z M 67.394531 16.285156 C 67.832031 16.800781 67.90625 20.957031 67.503906 21.65625 C 67.320312 21.910156 66.878906 22.058594 66.511719 21.984375 C 65.707031 21.839844 64.863281 19.449219 65.558594 19.191406 C 65.851562 19.117188 65.851562 18.898438 65.597656 18.457031 C 65.339844 18.015625 65.339844 17.535156 65.597656 16.800781 C 66 15.734375 66.769531 15.515625 67.394531 16.285156 Z M 67.394531 16.285156 "/>
<path style=" stroke:none;fill-rule:nonzero;fill:rgb(100%,100%,100%);fill-opacity:1;" d="M 70.691406 15.917969 C 70.914062 16.175781 71.097656 17.535156 71.097656 18.933594 C 71.097656 20.332031 70.914062 21.691406 70.691406 21.949219 C 70.398438 22.316406 70.621094 22.425781 71.683594 22.425781 C 72.855469 22.425781 73.039062 22.316406 72.855469 21.726562 C 72.671875 20.957031 73.589844 19.925781 75.09375 19.117188 C 75.570312 18.898438 75.863281 18.601562 75.753906 18.492188 C 75.644531 18.382812 74.984375 18.640625 74.25 19.082031 C 73.515625 19.484375 72.894531 19.851562 72.855469 19.851562 C 72.820312 19.851562 72.785156 19.042969 72.785156 18.015625 C 72.785156 16.175781 72.785156 16.175781 73.957031 16.175781 C 74.835938 16.175781 75.3125 16.433594 75.753906 17.09375 C 76.558594 18.308594 76.851562 17.976562 76.265625 16.542969 C 75.828125 15.441406 75.789062 15.441406 73.078125 15.441406 C 70.875 15.441406 70.398438 15.550781 70.691406 15.917969 Z M 70.691406 15.917969 "/>
<path style=" stroke:none;fill-rule:nonzero;fill:rgb(100%,100%,100%);fill-opacity:1;" d="M 77.292969 15.882812 C 77.808594 16.507812 77.808594 21.324219 77.292969 21.949219 C 77 22.316406 77.183594 22.425781 78.0625 22.425781 C 79.089844 22.425781 79.164062 22.351562 78.871094 21.765625 C 78.578125 21.175781 78.394531 17.09375 78.6875 17.390625 C 78.722656 17.425781 79.164062 18.53125 79.675781 19.851562 C 80.519531 22.167969 80.59375 22.242188 81.914062 22.351562 C 83.195312 22.464844 83.269531 22.425781 82.902344 21.726562 C 82.390625 20.808594 82.390625 19.117188 82.867188 19.117188 C 83.085938 19.117188 83.050781 18.824219 82.792969 18.382812 C 82.425781 17.832031 82.425781 17.390625 82.757812 16.542969 C 83.160156 15.476562 83.160156 15.441406 82.023438 15.441406 C 81.144531 15.441406 80.996094 15.550781 81.328125 15.882812 C 81.804688 16.359375 81.949219 18.75 81.511719 18.75 C 81.328125 18.714844 80.886719 18.015625 80.484375 17.167969 C 79.824219 15.773438 79.601562 15.625 78.320312 15.515625 C 77.148438 15.40625 76.925781 15.476562 77.292969 15.882812 Z M 81.949219 19.484375 C 82.058594 19.667969 81.988281 19.851562 81.804688 19.851562 C 81.582031 19.851562 81.398438 19.667969 81.398438 19.484375 C 81.398438 19.265625 81.472656 19.117188 81.546875 19.117188 C 81.65625 19.117188 81.839844 19.265625 81.949219 19.484375 Z M 81.949219 19.484375 "/>
<path style=" stroke:none;fill-rule:nonzero;fill:rgb(100%,100%,100%);fill-opacity:1;" d="M 84.808594 16.542969 C 85.140625 17.390625 85.140625 17.832031 84.773438 18.382812 C 84.515625 18.824219 84.480469 19.117188 84.699219 19.117188 C 85.175781 19.117188 85.175781 20.808594 84.699219 21.726562 C 84.332031 22.351562 84.441406 22.425781 85.835938 22.425781 C 87.011719 22.425781 87.265625 22.316406 86.972656 21.949219 C 86.496094 21.359375 86.496094 16.507812 86.972656 15.882812 C 87.265625 15.550781 87.011719 15.441406 85.875 15.441406 L 84.40625 15.441406 Z M 84.808594 16.542969 "/>
<path style=" stroke:none;fill-rule:nonzero;fill:rgb(100%,100%,100%);fill-opacity:1;" d="M 88.734375 16.25 C 89.355469 16.726562 90.164062 17.535156 90.492188 18.089844 C 91.042969 19.007812 91.007812 19.117188 90.054688 20.367188 C 89.503906 21.101562 89.171875 21.875 89.285156 22.058594 C 89.648438 22.609375 91.300781 22.535156 91.078125 21.949219 C 91.007812 21.691406 91.226562 21.175781 91.628906 20.808594 C 92.289062 20.183594 92.363281 20.21875 92.914062 20.992188 C 93.207031 21.433594 93.390625 21.949219 93.28125 22.132812 C 93.171875 22.28125 93.976562 22.425781 95.039062 22.425781 C 96.652344 22.390625 96.875 22.351562 96.25 21.984375 C 94.964844 21.285156 93.5 19.742188 93.5 19.082031 C 93.5 18.273438 95.222656 16.214844 96.214844 15.808594 C 96.761719 15.589844 96.359375 15.476562 94.785156 15.476562 C 93.574219 15.476562 92.804688 15.589844 93.023438 15.734375 C 93.390625 15.957031 93.351562 16.214844 92.914062 16.875 C 92.363281 17.648438 92.289062 17.683594 91.628906 17.058594 C 91.226562 16.691406 91.007812 16.175781 91.078125 15.917969 C 91.226562 15.550781 90.785156 15.441406 89.394531 15.441406 L 87.523438 15.441406 Z M 88.734375 16.25 "/>
<path style=" stroke:none;fill-rule:nonzero;fill:rgb(100%,100%,100%);fill-opacity:1;" d="M 24.089844 17.167969 C 24.382812 19.007812 24.566406 19.191406 24.566406 17.535156 C 24.566406 16.800781 24.421875 16.140625 24.238281 15.992188 C 24.015625 15.882812 23.980469 16.359375 24.089844 17.167969 Z M 24.089844 17.167969 "/>
<path style=" stroke:none;fill-rule:nonzero;fill:rgb(100%,100%,100%);fill-opacity:1;" d="M 8.433594 18.308594 C 8.433594 18.492188 9.09375 19.632812 9.863281 20.882812 C 11.476562 23.382812 13.382812 24.632812 15.582031 24.632812 C 16.425781 24.632812 16.828125 24.78125 16.683594 25.035156 C 16.535156 25.257812 15.949219 25.332031 15.289062 25.183594 C 14.410156 25 14.261719 25.035156 14.667969 25.332031 C 14.960938 25.550781 15.988281 25.84375 16.902344 25.957031 C 18.515625 26.175781 18.625 26.25 19.066406 27.71875 C 19.324219 28.53125 19.726562 29.632812 20.019531 30.148438 C 20.460938 30.992188 20.496094 30.957031 20.3125 29.410156 C 20.167969 28.308594 20.277344 27.28125 20.679688 26.359375 C 20.972656 25.589844 21.191406 24.964844 21.15625 24.890625 C 21.121094 24.851562 21.449219 24.300781 21.851562 23.714844 C 22.292969 23.089844 22.84375 22.207031 23.0625 21.691406 L 23.503906 20.773438 L 22.769531 21.691406 C 22.328125 22.207031 21.488281 23.492188 20.863281 24.523438 C 19.875 26.25 19.691406 26.398438 19.214844 25.917969 C 18.882812 25.625 18.332031 25.367188 17.964844 25.367188 C 17.601562 25.367188 17.234375 25.109375 17.125 24.851562 C 17.011719 24.558594 16.058594 24.042969 15.035156 23.75 C 13.164062 23.199219 10.78125 21.691406 11.808594 21.691406 C 12.101562 21.691406 12.464844 21.839844 12.6875 22.023438 C 12.871094 22.167969 13.53125 22.5 14.117188 22.683594 C 14.960938 22.976562 15.328125 22.941406 15.691406 22.535156 C 16.425781 21.765625 16.097656 20.917969 14.777344 20.21875 C 14.117188 19.851562 13.382812 19.410156 13.125 19.226562 C 12.871094 19.007812 12.285156 18.75 11.808594 18.640625 C 10.449219 18.308594 11.511719 19.375 13.933594 20.734375 C 15.214844 21.46875 15.730469 21.910156 15.328125 21.984375 C 14.375 22.167969 10.78125 20.292969 9.753906 19.082031 C 8.835938 18.015625 8.433594 17.757812 8.433594 18.308594 Z M 8.433594 18.308594 "/>
<path style=" stroke:none;fill-rule:nonzero;fill:rgb(100%,100%,100%);fill-opacity:1;" d="M 38.242188 19.082031 C 37.328125 20.21875 33.625 22.167969 32.671875 21.984375 C 32.304688 21.910156 32.890625 21.433594 34.101562 20.734375 C 35.238281 20.074219 36.335938 19.339844 36.59375 19.042969 C 36.960938 18.566406 36.886719 18.53125 36.042969 18.675781 C 34.980469 18.859375 34.90625 18.898438 33.074219 20.476562 C 31.019531 22.207031 32.375 23.675781 34.761719 22.316406 C 35.421875 21.910156 36.042969 21.691406 36.152344 21.800781 C 36.445312 22.09375 34.429688 23.53125 33.660156 23.53125 C 32.78125 23.53125 30.800781 24.558594 30.800781 25 C 30.800781 25.21875 30.46875 25.367188 30.066406 25.367188 C 29.699219 25.367188 29.148438 25.589844 28.894531 25.882812 C 28.488281 26.324219 28.269531 26.25 27.351562 25.441406 L 26.289062 24.449219 L 26.988281 25.515625 C 27.464844 26.25 27.683594 27.28125 27.683594 28.75 C 27.683594 30.589844 27.71875 30.773438 28.085938 30.035156 C 28.34375 29.59375 28.710938 28.53125 28.964844 27.71875 C 29.40625 26.25 29.515625 26.175781 31.203125 25.957031 C 32.15625 25.808594 33.074219 25.550781 33.183594 25.332031 C 33.328125 25.109375 33.074219 25.074219 32.523438 25.183594 C 32.011719 25.332031 31.496094 25.257812 31.386719 25.035156 C 31.203125 24.78125 31.605469 24.632812 32.449219 24.632812 C 34.578125 24.632812 36.519531 23.382812 37.988281 21.140625 C 38.683594 20.035156 39.34375 18.859375 39.453125 18.566406 C 39.820312 17.683594 39.125 17.976562 38.242188 19.082031 Z M 38.242188 19.082031 "/>
<path style=" stroke:none;fill-rule:nonzero;fill:rgb(100%,100%,100%);fill-opacity:1;" d="M 23.6875 19.667969 C 23.355469 20.625 23.429688 20.84375 23.871094 20.109375 C 24.089844 19.742188 24.199219 19.339844 24.089844 19.265625 C 24.015625 19.15625 23.832031 19.339844 23.6875 19.667969 Z M 23.6875 19.667969 "/>
<path style=" stroke:none;fill-rule:nonzero;fill:rgb(100%,100%,100%);fill-opacity:1;" d="M 25.921875 21.691406 C 25.152344 22.683594 24.308594 23.53125 24.015625 23.53125 C 23.761719 23.53125 23.171875 24.042969 22.734375 24.667969 C 22.074219 25.550781 21.964844 26.066406 22.148438 27.28125 C 22.367188 28.640625 22.328125 28.714844 21.816406 28.160156 C 20.9375 27.28125 20.789062 27.425781 21.011719 28.859375 C 21.191406 30.035156 23.355469 33.675781 23.6875 33.34375 C 23.761719 33.273438 23.578125 32.5 23.285156 31.617188 C 22.585938 29.632812 22.585938 26.839844 23.246094 25.183594 C 23.539062 24.484375 23.871094 23.898438 23.980469 23.898438 C 24.089844 23.898438 24.421875 24.375 24.75 25 C 25.445312 26.359375 25.484375 30.734375 24.75 31.984375 C 24.457031 32.5 24.238281 33.050781 24.199219 33.234375 C 24.199219 33.824219 25.335938 32.574219 26.253906 31.03125 C 27.28125 29.300781 27.207031 28.675781 25.628906 25.074219 C 24.933594 23.53125 24.933594 23.492188 25.703125 22.683594 C 26.398438 21.949219 27.648438 19.851562 27.390625 19.851562 C 27.351562 19.851562 26.65625 20.660156 25.921875 21.691406 Z M 25.921875 21.691406 "/>
<path style=" stroke:none;fill-rule:nonzero;fill:rgb(100%,100%,100%);fill-opacity:1;" d="M 76.011719 20.515625 C 75.863281 21.066406 75.421875 21.433594 74.761719 21.582031 C 73.296875 21.875 73.441406 22.425781 74.945312 22.425781 C 76.046875 22.425781 76.191406 22.28125 76.414062 21.25 C 76.671875 19.925781 76.339844 19.300781 76.011719 20.515625 Z M 76.011719 20.515625 "/>
<path style=" stroke:none;fill-rule:nonzero;fill:rgb(100%,100%,100%);fill-opacity:1;" d="M 23.648438 25.367188 C 23.246094 26.03125 23.355469 30 23.796875 30.773438 C 24.089844 31.324219 24.164062 31.285156 24.421875 30.332031 C 25.042969 27.867188 24.457031 24.082031 23.648438 25.367188 Z M 23.648438 25.367188 "/>
</g>
</svg>
